<svg xmlns="http://www.w3.org/2000/svg" viewBox="0 0 100 100" fill="none">
  <defs>
    <linearGradient id="gradient" x1="0%" y1="0%" x2="100%" y2="100%">
      <stop offset="0%" style="stop-color:#51b485" />
      <stop offset="100%" style="stop-color:#5c74a3" />
    </linearGradient>
  </defs>
  <circle cx="50" cy="50" r="45" fill="url(#gradient)" />
  <path 
    d="M50 25 C35 25, 25 38, 25 50 C25 68, 38 75, 50 75 C62 75, 75 68, 75 50 C75 38, 65 25, 50 25 Z M50 35 C42 35, 35 42, 35 50 C35 58, 40 65, 50 65 C60 65, 65 58, 65 50 C65 42, 58 35, 50 35" 
    fill="white" 
    fill-opacity="0.9"
  />
  <circle cx="50" cy="50" r="8" fill="white" />
</svg>
